<svg width="20" height="20" viewBox="0 0 20 20" fill="none" xmlns="http://www.w3.org/2000/svg">
<path fill-rule="evenodd" clip-rule="evenodd" d="M6.22038 5.87533C6.22038 5.41509 6.59348 5.04199 7.05372 5.04199H14.1246C14.1247 5.04199 14.1248 5.04199 14.1249 5.04199H14.137C14.5973 5.04199 14.9704 5.41509 14.9704 5.87533V12.9587C14.9704 13.4189 14.5973 13.792 14.137 13.792C13.6768 13.792 13.3037 13.4189 13.3037 12.9587V7.8749L6.46446 14.7142C6.13902 15.0396 5.61138 15.0396 5.28595 14.7142C4.96051 14.3887 4.96051 13.8611 5.28595 13.5356L12.1129 6.70866H7.05372C6.59348 6.70866 6.22038 6.33556 6.22038 5.87533Z" fill="#128C7E"/>
</svg>
