<svg width="50" height="50" viewBox="0 0 50 50" fill="none" xmlns="http://www.w3.org/2000/svg">
<path d="M29.8077 0C25.1923 0 21.1708 2.71517 19.0054 6.74642C18.1631 6.45059 17.2808 6.25 16.3462 6.25C11.8654 6.25 8.22668 9.95391 7.78245 14.681C3.41899 15.1622 0 19.1042 0 23.9583C0 29.1354 3.875 33.3333 8.65385 33.3333H11.253L15.7752 21.8994C16.5368 19.9848 18.2675 18.7459 20.1848 18.7459C20.5156 18.7459 20.8478 18.785 21.1651 18.8558C23.3863 19.3537 25 21.5 25 23.9583V29.1667H25.9615C27.35 29.1667 28.6224 29.835 29.5147 30.9204L33.0829 21.8994C33.8445 19.9848 35.5752 18.7459 37.4925 18.7459C37.8233 18.7459 38.1593 18.785 38.4766 18.8558C40.6977 19.3558 42.3077 21.5 42.3077 23.9583V29.1667H43.2692C44.7173 29.1667 46.0409 29.892 46.9351 31.0628C48.7947 29.342 50 26.8146 50 23.9583C50 19.1187 46.6013 15.183 42.2551 14.6851C42.284 14.308 42.3077 13.9271 42.3077 13.5417C42.3077 6.0625 36.7115 0 29.8077 0ZM20.0496 22.9248C19.7239 22.9754 19.4415 23.2067 19.3059 23.5474L13.5367 38.1307C13.4117 38.4536 13.4404 38.8216 13.6193 39.1154C13.7962 39.4071 14.1 39.5833 14.4231 39.5833H19.2308V48.9583C19.2308 49.4521 19.5508 49.8797 19.997 49.9797C20.0643 49.9942 20.1288 50 20.1923 50C20.5712 50 20.9249 49.7589 21.0787 49.3693L26.848 34.786C26.973 34.4631 26.9442 34.0929 26.7653 33.8013C26.5884 33.5075 26.2846 33.3333 25.9615 33.3333H21.1538V23.9583C21.1538 23.4646 20.8338 23.037 20.3876 22.937C20.2727 22.911 20.1581 22.9079 20.0496 22.9248ZM37.3573 22.9248C37.0316 22.9754 36.7492 23.2067 36.6136 23.5474L30.8444 38.1307C30.7194 38.4536 30.7481 38.8216 30.927 39.1154C31.1039 39.4071 31.4077 39.5833 31.7308 39.5833H36.5385V48.9583C36.5385 49.4521 36.8585 49.8797 37.3047 49.9797C37.372 49.9942 37.4365 50 37.5 50C37.8788 50 38.2326 49.7589 38.3864 49.3693L44.1556 34.786C44.2806 34.4631 44.2519 34.0929 44.073 33.8013C43.8961 33.5075 43.5923 33.3333 43.2692 33.3333H38.4615V23.9583C38.4615 23.4646 38.1415 23.037 37.6953 22.937C37.5804 22.911 37.4658 22.9079 37.3573 22.9248Z" fill="#C81E1E"/>
</svg>
