<svg width="60" height="60" viewBox="0 0 60 60" fill="none" xmlns="http://www.w3.org/2000/svg">
<path d="M39.4407 54.2924C37.6068 54.292 35.8003 53.8475 34.1757 52.9968C28.4022 49.9744 23.1214 46.0926 18.5138 41.4843C13.9059 36.8761 10.0259 31.5938 7.00691 25.8187C5.09114 22.1792 5.30666 17.7857 7.56941 14.3512L11.2688 8.76741C12.5115 6.88958 14.5322 5.6695 16.7727 5.44418C19.0132 5.21886 21.2364 6.01213 22.8282 7.60491L25.8169 10.5937C28.7027 13.5051 28.7302 18.1898 25.8788 21.1349L23.4413 23.6343C25.9467 29.4339 30.5686 34.0605 36.3657 36.5718L38.865 34.1343C41.8088 31.2776 46.4982 31.3052 49.4082 34.1962L52.3932 37.1849C53.9847 38.7764 54.7774 40.9984 54.5525 43.2379C54.3275 45.4773 53.1088 47.4974 51.2325 48.7405L45.6507 52.4362C43.8082 53.6521 41.6481 54.2978 39.4407 54.2924ZM17.5275 9.15741C17.4023 9.15724 17.2771 9.1635 17.1525 9.17616C16.0321 9.28858 15.0216 9.8985 14.4 10.8374L10.7025 16.4212C9.1922 18.7148 9.04854 21.6484 10.3275 24.0787C13.1695 29.5188 16.824 34.494 21.165 38.833C25.503 43.173 30.4754 46.8285 35.9119 49.6743C38.3444 50.9523 41.2789 50.8086 43.575 49.2993L49.1588 45.6018C50.0955 44.9797 50.7036 43.97 50.8155 42.8511C50.9274 41.7322 50.5313 40.6221 49.7363 39.8268L46.7513 36.8268C45.2962 35.3809 42.9512 35.3667 41.4788 36.7949L38.1038 40.093C37.5831 40.6007 36.8157 40.7615 36.135 40.5055C28.4506 37.6058 22.386 31.539 19.4888 23.8537C19.2312 23.1719 19.3921 22.4026 19.9013 21.8812L23.1975 18.5062C24.6235 17.0336 24.6093 14.6908 23.1657 13.2355L20.175 10.2562C19.4738 9.55236 18.521 9.15696 17.5275 9.15741Z" fill="white"/>
<path d="M43.1251 28.125C36.9119 28.125 31.8751 23.0882 31.8751 16.875C31.8751 10.6618 36.9119 5.625 43.1251 5.625C49.3383 5.625 54.3751 10.6618 54.3751 16.875C54.3689 23.0856 49.3357 28.1188 43.1251 28.125ZM43.1251 9.375C38.9829 9.375 35.6251 12.7329 35.6251 16.875C35.6251 21.0171 38.9829 24.375 43.1251 24.375C47.2672 24.375 50.6251 21.0171 50.6251 16.875C50.6251 12.7329 47.2672 9.375 43.1251 9.375Z" fill="white"/>
<path d="M43.125 22.5C42.0895 22.5 41.25 21.6605 41.25 20.625V13.125C41.25 12.0895 42.0895 11.25 43.125 11.25C44.1605 11.25 45 12.0895 45 13.125V20.625C45 21.6605 44.1605 22.5 43.125 22.5Z" fill="white"/>
<path d="M46.8751 18.75H39.3751C38.3395 18.75 37.5001 17.9105 37.5001 16.875C37.5001 15.8395 38.3395 15 39.3751 15H46.8751C47.9106 15 48.7501 15.8395 48.7501 16.875C48.7501 17.9105 47.9106 18.75 46.8751 18.75Z" fill="white"/>
</svg>
