<svg width="50" height="50" viewBox="0 0 50 50" fill="none" xmlns="http://www.w3.org/2000/svg">
<path d="M18.9883 0.000394086C18.8065 0.00115134 18.6283 0.0535367 18.4729 0.151914C18.3175 0.250291 18.1908 0.390935 18.1064 0.558713C18.022 0.726492 17.9832 0.915053 17.994 1.10411C18.0049 1.29316 18.0651 1.47555 18.168 1.63166L20.0938 4.63993L20.959 7.34107C19.7574 8.09786 19.0001 9.18583 19.0001 10.4266C19.0001 12.7625 21.636 14.5923 25 14.5923C28.3639 14.5923 30.9999 12.7625 30.9999 10.4266C30.9999 9.18583 30.2425 8.09786 29.0409 7.34107L29.9062 4.63993L31.8319 1.63166C31.9365 1.47327 31.997 1.28784 32.0066 1.09588C32.0162 0.903925 31.9747 0.712936 31.8865 0.54406C31.7984 0.375183 31.667 0.235008 31.5071 0.139053C31.3472 0.0430981 31.1649 -0.00489252 30.9804 0.000394086C30.818 0.00505415 30.6592 0.0508265 30.5176 0.133754C30.3761 0.216681 30.256 0.334268 30.1679 0.476348L28.1679 3.60056C28.1184 3.67748 28.079 3.76094 28.0507 3.84871L27.1875 6.54782C26.511 6.36851 25.7779 6.26102 25 6.26102C24.2221 6.26102 23.4889 6.36851 22.8125 6.54782L21.9492 3.84871C21.9209 3.76094 21.8815 3.67748 21.8321 3.60056L19.8321 0.476348C19.741 0.329714 19.616 0.209274 19.4686 0.126104C19.3212 0.0429351 19.156 -0.00029344 18.9883 0.000394086ZM19.1915 14.8018C18.3435 15.6193 17.7 16.6126 17.336 17.7165H18.1094C20.1324 17.7165 21.8354 19.331 21.9863 21.3919C22.0563 22.3375 21.8701 23.7711 20.5782 25.226C20.4612 25.3572 20.3264 25.4843 20.1934 25.6124C21.5334 26.5341 23.196 27.0891 25 27.0891C26.805 27.0891 28.4666 26.5341 29.8066 25.6124C29.6736 25.4843 29.5388 25.3582 29.4218 25.226C28.1308 23.7722 27.9436 22.3374 28.0136 21.3939C28.1646 19.3309 29.8675 17.7165 31.8905 17.7165H32.6639C32.2999 16.6126 31.6555 15.6193 30.8085 14.8018C29.3715 15.9671 27.3349 16.6751 25 16.6751C22.665 16.6751 20.6284 15.9671 19.1915 14.8018ZM1.85772 19.7993C0.83373 19.7993 0.00031956 20.6676 0.00031956 21.7173C-0.0156802 22.816 0.568421 24.5591 1.9124 25.9806C2.83839 26.9605 4.47526 28.1305 7.00022 28.1305C10.8252 28.1305 16.9484 26.244 19.1114 23.8123C19.7534 23.0886 20.0502 22.3294 19.9922 21.5546C19.9202 20.5705 19.0934 19.7993 18.1094 19.7993H1.85772ZM31.8905 19.7993C30.9065 19.7993 30.0797 20.5705 30.0077 21.5546C29.9497 22.3294 30.2456 23.0886 30.8886 23.8123C33.0515 26.244 39.1758 28.1305 42.9997 28.1305C45.5257 28.1305 47.1606 26.9605 48.0876 25.9806C49.4315 24.558 50.0166 22.815 49.9996 21.7173C49.9996 20.6676 49.1662 19.7993 48.1422 19.7993H31.8905ZM18.627 26.8389C15.4531 28.8874 10.4792 30.2133 7.00022 30.2133C6.75223 30.2133 6.52429 30.1903 6.2893 30.1726C6.88429 32.143 8.37494 33.3375 10.4279 33.3375C12.9049 33.3375 16.635 30.5255 18.627 26.8389ZM31.3729 26.8389C33.3649 30.5255 37.0951 33.3375 39.572 33.3375C41.625 33.3375 43.1157 32.143 43.7107 30.1726C43.4757 30.1903 43.2477 30.2133 42.9997 30.2133C39.5208 30.2133 34.5469 28.8874 31.3729 26.8389ZM29.7597 28.0797C28.3407 28.8014 26.724 29.2248 25 29.2248C23.276 29.2248 21.6602 28.8023 20.2422 28.0817C19.5972 29.2272 18.8058 30.2998 17.9259 31.2547H32.0761C31.1961 30.2998 30.4037 29.2262 29.7597 28.0797ZM17.047 33.3375C17.11 34.7934 17.2457 36.1816 17.4337 37.5032H32.5682C32.7552 36.1816 32.89 34.7934 32.953 33.3375H17.047ZM17.7852 39.586C18.0922 41.1106 18.4863 42.5071 18.9493 43.7516H31.0507C31.5137 42.5071 31.9077 41.1106 32.2147 39.586H17.7852ZM19.8692 45.8344C21.2372 48.4556 23.01 50 25 50C26.99 50 28.7628 48.4556 30.1308 45.8344H19.8692Z" fill="#C81E1E"/>
</svg>
