<svg width="50" height="50" viewBox="0 0 50 50" fill="none" xmlns="http://www.w3.org/2000/svg">
<path d="M41.4272 0C32.6557 3.93036 28.5714 9.93856 28.5714 17.5153C28.5714 24.6082 32.9464 30.3571 39.2857 30.3571C45.7143 30.3571 50 24.6082 50 17.5153C50 10.3903 43.3915 8.04107 41.4272 0ZM7.1324 3.57143C3.1949 3.57143 0.00178789 6.76283 2.1745e-06 10.7003C-0.00714068 32.4021 17.5839 50 39.2857 50C43.2304 50 46.4286 46.8018 46.4286 42.8571V39.0346C46.4286 38.6507 46.1825 38.312 45.8182 38.1906L35.4667 34.7377C35.0845 34.6109 34.6645 34.7543 34.4413 35.09L31.3511 39.7287C31.1172 40.0787 30.6698 40.2292 30.2769 40.0774C21.3787 36.6524 13.3476 28.6213 9.92257 19.7231C9.77257 19.3302 9.92135 18.8828 10.2713 18.6489L14.91 15.5587C15.2457 15.3355 15.3891 14.9155 15.2623 14.5333L11.8094 4.18178C11.688 3.81749 11.3493 3.57143 10.9654 3.57143H7.1324ZM39.2857 17.3479C41.4625 18.9408 44.3064 21.515 45.7136 23.8525C44.4189 26.1561 42.1946 28.1878 39.2857 28.1878C36.4071 28.1878 33.6168 26.1115 32.8578 23.8525C34.265 21.4133 37.1429 18.839 39.2857 17.3479Z" fill="#C81E1E"/>
</svg>
