<svg width="70" height="42" viewBox="0 0 70 42" fill="none" xmlns="http://www.w3.org/2000/svg">
<path d="M11.6667 0C9.08833 0 7 2.08833 7 4.66667V7H0V11.6667H7V30.3333H0V35H7V37.3333C7 39.9117 9.08833 42 11.6667 42H58.3333C60.9117 42 63 39.9117 63 37.3333V35H70V30.3333H63V11.6667H70V7H63V4.66667C63 2.08833 60.9117 0 58.3333 0H11.6667ZM32.6667 11.6667H42C43.288 11.6667 44.3333 12.7097 44.3333 14H55.9225C57.2525 14 58.3333 15.0808 58.3333 16.4108C58.3333 17.6801 57.3467 18.7331 56.082 18.8171L43.0892 19.8379C42.4779 19.8799 42 20.3863 42 21C42 21.6137 42.4756 22.1201 43.0846 22.1621L56.082 23.1829C57.349 23.2669 58.3333 24.3199 58.3333 25.5892C58.3333 26.9192 57.2525 28 55.9225 28H44.3333C44.3333 29.2903 43.288 30.3333 42 30.3333H32.6667C28.8073 30.3333 25.6667 27.1927 25.6667 23.3333V18.6667C25.6667 14.8073 28.8073 11.6667 32.6667 11.6667ZM16.3333 16.3333C18.9117 16.3333 21 18.4217 21 21C21 23.5783 18.9117 25.6667 16.3333 25.6667C13.755 25.6667 11.6667 23.5783 11.6667 21C11.6667 18.4217 13.755 16.3333 16.3333 16.3333Z" fill="#C81E1E"/>
</svg>
