<svg width="10" height="10" viewBox="0 0 10 10" fill="none" xmlns="http://www.w3.org/2000/svg">
<path fill-rule="evenodd" clip-rule="evenodd" d="M1.22038 0.875326C1.22038 0.415088 1.59348 0.0419922 2.05372 0.0419922H9.12464C9.12473 0.0419922 9.12483 0.0419922 9.12493 0.0419922H9.13705C9.59729 0.0419922 9.97038 0.415088 9.97038 0.875326V7.95866C9.97038 8.4189 9.59729 8.79199 9.13705 8.79199C8.67681 8.79199 8.30372 8.4189 8.30372 7.95866V2.8749L1.46446 9.71416C1.13902 10.0396 0.611385 10.0396 0.285948 9.71416C-0.0394891 9.38872 -0.0394891 8.86109 0.285948 8.53565L7.11294 1.70866H2.05372C1.59348 1.70866 1.22038 1.33556 1.22038 0.875326Z" fill="white"/>
</svg>
