<svg width="42" height="42" viewBox="0 0 42 42" fill="none" xmlns="http://www.w3.org/2000/svg">
<path d="M21 0.375C9.60938 0.375 0.375 9.60938 0.375 21C0.375 24.8109 1.41305 28.3779 3.2168 31.4407L0.576416 41.3284L10.9475 39.0084C13.9222 40.6725 17.3494 41.625 21 41.625C32.3906 41.625 41.625 32.3906 41.625 21C41.625 9.60938 32.3906 0.375 21 0.375ZM21 4.125C30.3197 4.125 37.875 11.6803 37.875 21C37.875 30.3197 30.3197 37.875 21 37.875C17.5022 37.875 14.2535 36.8108 11.5591 34.9893L5.80408 36.2765L7.26892 30.787C5.29736 28.0251 4.125 24.6525 4.125 21C4.125 11.6803 11.6803 4.125 21 4.125ZM13.9431 11.3778C13.5991 11.3778 13.0459 11.505 12.5753 12.0168C12.1131 12.5297 10.7937 13.7614 10.7937 16.2795C10.7937 18.7883 12.616 21.222 12.8719 21.5566C13.1279 21.9007 16.4067 27.2243 21.6042 29.2709C25.913 30.9677 26.7933 30.6316 27.7365 30.5435C28.6721 30.4628 30.7578 29.3125 31.1825 28.121C31.6062 26.9285 31.6058 25.9058 31.4736 25.6912C31.3452 25.483 31.0096 25.3538 30.4977 25.0979C29.9858 24.841 27.4747 23.6041 27.004 23.4353C26.54 23.2666 26.1961 23.1779 25.8615 23.6898C25.5174 24.2017 24.542 25.3537 24.2373 25.6893C23.942 26.0334 23.6469 26.0734 23.135 25.8175C22.6231 25.5616 20.9771 25.0243 19.0261 23.2815C17.5083 21.9306 16.4833 20.2576 16.188 19.7476C15.8917 19.2366 16.1554 18.958 16.4114 18.702C16.6439 18.4789 16.9245 18.1093 17.1804 17.814C17.4279 17.5102 17.5152 17.3029 17.684 16.9589C17.8611 16.6242 17.7712 16.3194 17.6437 16.0635C17.5171 15.8066 16.5246 13.2801 16.069 12.2732C15.6865 11.4257 15.2866 11.4009 14.9191 11.3925C14.6219 11.3775 14.2778 11.3778 13.9431 11.3778Z" fill="white"/>
</svg>
