<svg width="60" height="60" viewBox="0 0 60 60" fill="none" xmlns="http://www.w3.org/2000/svg">
<path d="M30 9.375C18.6094 9.375 9.375 18.6094 9.375 30C9.375 33.8109 10.413 37.3779 12.2168 40.4407L9.57642 50.3284L19.9475 48.0084C22.9222 49.6725 26.3494 50.625 30 50.625C41.3906 50.625 50.625 41.3906 50.625 30C50.625 18.6094 41.3906 9.375 30 9.375ZM30 13.125C39.3197 13.125 46.875 20.6803 46.875 30C46.875 39.3197 39.3197 46.875 30 46.875C26.5022 46.875 23.2535 45.8108 20.5591 43.9893L14.8041 45.2765L16.2689 39.787C14.2974 37.0251 13.125 33.6525 13.125 30C13.125 20.6803 20.6803 13.125 30 13.125ZM22.9431 20.3778C22.5991 20.3778 22.0459 20.505 21.5753 21.0168C21.1131 21.5297 19.7937 22.7614 19.7937 25.2795C19.7937 27.7883 21.616 30.222 21.8719 30.5566C22.1279 30.9007 25.4067 36.2243 30.6042 38.2709C34.913 39.9677 35.7933 39.6316 36.7365 39.5435C37.6721 39.4628 39.7578 38.3125 40.1825 37.121C40.6062 35.9285 40.6058 34.9058 40.4736 34.6912C40.3452 34.483 40.0096 34.3538 39.4977 34.0979C38.9858 33.841 36.4747 32.6041 36.004 32.4353C35.54 32.2666 35.1961 32.1779 34.8615 32.6898C34.5174 33.2017 33.542 34.3537 33.2373 34.6893C32.942 35.0334 32.6469 35.0734 32.135 34.8175C31.6231 34.5616 29.9771 34.0243 28.0261 32.2815C26.5083 30.9306 25.4833 29.2576 25.188 28.7476C24.8917 28.2366 25.1554 27.958 25.4114 27.702C25.6439 27.4789 25.9245 27.1093 26.1804 26.814C26.4279 26.5102 26.5152 26.3029 26.684 25.9589C26.8611 25.6242 26.7712 25.3194 26.6437 25.0635C26.5171 24.8066 25.5246 22.2801 25.069 21.2732C24.6865 20.4257 24.2866 20.4009 23.9191 20.3925C23.6219 20.3775 23.2778 20.3778 22.9431 20.3778Z" fill="#128C7E"/>
</svg>
