<svg width="1305" height="435" viewBox="0 0 1305 435" fill="none" xmlns="http://www.w3.org/2000/svg">
<path d="M0 45C0 20.1472 20.1472 0 45 0H976C981.523 0 986 4.47715 986 10V425C986 430.523 981.523 435 976 435H45C20.1472 435 0 414.853 0 390V45Z" fill="#9A3434"/>
<rect x="986" y="17" width="60" height="401" fill="#C0C0C0"/>
<path d="M1046 10C1046 4.47715 1050.48 0 1056 0H1286C1296.49 0 1305 8.50659 1305 19V416C1305 426.493 1296.49 435 1286 435H1056C1050.48 435 1046 430.523 1046 425V10Z" fill="#9A3434"/>
<rect x="49" y="58" width="874" height="308" rx="5" fill="#C0C0C0"/>
<rect x="127" y="116" width="157" height="191" rx="6" fill="#D9D9D9"/>
<rect x="572" y="116" width="255" height="191" fill="#D9D9D9"/>
<rect x="1155" y="17" width="150" height="401" fill="#D9D9D9"/>
<circle cx="699.5" cy="211.5" r="41.5" fill="#D9D9D9" stroke="#9A3434" stroke-width="10"/>
<circle cx="699" cy="212" r="27" fill="#D9D9D9" stroke="#9A3434" stroke-width="10"/>
<circle cx="699" cy="212" r="14" fill="#D9D9D9" stroke="#9A3434" stroke-width="10"/>
<path d="M624 218C620.686 218 618 215.314 618 212C618 208.686 620.686 206 624 206H653V218H624Z" fill="white"/>
<path d="M746 218V206H775C778.314 206 781 208.686 781 212C781 215.314 778.314 218 775 218H746Z" fill="white"/>
<rect x="1270" y="317" width="18" height="82" fill="#6AADDD"/>
<rect x="1270" y="237" width="18" height="80" fill="#FF0000"/>
<path d="M1270 329V305H1288V329H1270Z" fill="white"/>
<rect x="1288" y="117" width="18" height="82" transform="rotate(180 1288 117)" fill="#6AADDD"/>
<rect x="1288" y="197" width="18" height="80" transform="rotate(180 1288 197)" fill="#FF0000"/>
<path d="M1288 105V129H1270V105H1288Z" fill="white"/>
<rect x="1100.09" y="47" width="18" height="33.9136" transform="rotate(-90 1100.09 47)" fill="#6AADDD"/>
<rect x="1067" y="47" width="18" height="33.0864" transform="rotate(-90 1067 47)" fill="#FF0000"/>
<path d="M1105.05 47H1095.12V29L1105.05 29V47Z" fill="white"/>
<rect x="1100.09" y="408" width="18" height="33.9136" transform="rotate(-90 1100.09 408)" fill="#6AADDD"/>
<rect x="1067" y="408" width="18" height="33.0864" transform="rotate(-90 1067 408)" fill="#FF0000"/>
<path d="M1105.05 408H1095.12V390H1105.05V408Z" fill="white"/>
<g filter="url(#filter0_d_2418_1709)">
<rect x="134" y="195" width="3" height="34" rx="1.5" fill="#838383"/>
</g>
<rect x="76" y="25" width="612" height="8" rx="3" fill="#D9D9D9"/>
<rect x="76" y="391" width="612" height="8" rx="3" fill="#D9D9D9"/>
<path fill-rule="evenodd" clip-rule="evenodd" d="M38 25C29.1634 25 22 32.1634 22 41V92C22 97.9223 25.2176 103.093 30 105.859V40C30 36.134 33.134 33 37 33H104.859C102.093 28.2176 96.9223 25 91 25H38Z" fill="#D9D9D9"/>
<path fill-rule="evenodd" clip-rule="evenodd" d="M22 382.86C22 391.696 29.1634 398.86 38 398.86H89C94.9223 398.86 100.093 395.642 102.86 390.86H37C33.134 390.86 30 387.726 30 383.86L30 316C25.2176 318.767 22 323.937 22 329.86L22 382.86Z" fill="#D9D9D9"/>
<defs>
<filter id="filter0_d_2418_1709" x="130" y="195" width="11" height="42" filterUnits="userSpaceOnUse" color-interpolation-filters="sRGB">
<feFlood flood-opacity="0" result="BackgroundImageFix"/>
<feColorMatrix in="SourceAlpha" type="matrix" values="0 0 0 0 0 0 0 0 0 0 0 0 0 0 0 0 0 0 127 0" result="hardAlpha"/>
<feOffset dy="4"/>
<feGaussianBlur stdDeviation="2"/>
<feComposite in2="hardAlpha" operator="out"/>
<feColorMatrix type="matrix" values="0 0 0 0 0 0 0 0 0 0 0 0 0 0 0 0 0 0 0.25 0"/>
<feBlend mode="normal" in2="BackgroundImageFix" result="effect1_dropShadow_2418_1709"/>
<feBlend mode="normal" in="SourceGraphic" in2="effect1_dropShadow_2418_1709" result="shape"/>
</filter>
</defs>
</svg>
